<svg id="svg" version="1.1" xmlns="http://www.w3.org/2000/svg" xmlns:xlink="http://www.w3.org/1999/xlink" width="400" height="400" viewBox="0, 0, 400,400"><g id="svgg"><path id="path0" d="M27.442 14.633 C 27.395 14.679,26.511 14.862,25.477 15.040 C 16.218 16.633,10.505 22.622,8.632 32.697 C 8.302 34.477,8.302 351.179,8.632 352.959 C 10.489 362.948,15.888 368.686,25.269 370.640 C 27.415 371.086,172.895 371.329,175.512 370.890 C 185.114 369.280,190.638 364.695,193.276 356.148 L 193.750 354.611 193.852 252.254 L 193.955 149.898 199.717 132.172 C 202.886 122.423,205.684 113.755,205.934 112.910 C 207.118 108.915,209.085 107.457,211.213 108.998 C 212.440 109.887,215.149 113.387,218.983 119.037 C 222.761 124.603,235.528 142.325,236.547 143.416 C 238.420 145.421,240.959 145.759,245.117 144.556 C 268.480 137.795,292.122 142.188,308.382 156.312 C 312.527 159.912,312.479 159.917,326.363 154.559 C 332.241 152.291,338.678 149.735,340.667 148.880 C 348.680 145.435,351.934 144.974,354.193 146.962 C 356.295 148.812,356.364 149.429,355.343 157.280 C 354.890 160.771,353.962 168.099,353.280 173.566 C 352.599 179.032,351.840 184.657,351.592 186.066 C 350.543 192.034,350.808 193.319,354.082 198.156 C 357.909 203.810,361.078 209.942,362.694 214.818 C 363.267 216.546,363.753 216.293,358.484 217.015 C 353.548 217.691,352.470 217.990,351.502 218.952 C 349.088 221.353,350.455 226.598,353.790 227.734 C 355.159 228.201,356.218 228.170,361.016 227.527 C 365.807 226.885,365.501 226.778,365.616 229.131 L 365.703 230.905 365.075 230.818 C 353.684 229.246,350.419 230.173,350.412 234.982 C 350.405 239.350,351.947 240.412,359.275 241.087 C 361.954 241.334,364.202 241.593,364.271 241.662 C 364.397 241.788,363.462 244.974,363.168 245.421 C 363.054 245.593,362.101 245.466,359.631 244.949 C 353.215 243.606,350.410 245.152,350.410 250.032 C 350.410 252.994,351.640 254.341,354.965 255.022 C 355.784 255.189,356.668 255.376,356.928 255.437 L 357.401 255.547 356.796 256.308 C 347.508 268.016,331.745 276.708,306.788 283.883 C 299.914 285.860,299.445 286.092,298.466 288.005 C 296.861 291.141,297.956 295.570,300.678 296.959 C 301.142 297.195,305.537 298.700,310.443 300.303 C 328.071 306.062,342.287 311.038,354.201 315.621 C 360.514 318.049,351.976 321.133,335.348 322.431 C 333.094 322.606,328.899 322.979,326.025 323.258 C 319.609 323.881,309.989 324.683,304.081 325.087 C 295.592 325.668,294.833 326.472,294.475 335.264 C 294.016 346.517,292.772 352.384,289.415 359.138 C 287.797 362.393,287.602 363.520,288.296 365.604 C 289.752 369.980,296.080 371.474,299.133 368.163 C 302.791 364.194,307.133 348.688,307.173 339.447 C 307.181 337.733,307.068 337.792,310.861 337.512 C 312.720 337.374,317.654 336.950,321.824 336.568 C 334.061 335.448,338.174 335.085,342.537 334.740 C 352.938 333.918,358.895 332.239,363.387 328.864 C 370.260 323.698,371.252 313.208,365.387 307.721 C 361.979 304.533,355.508 301.863,330.783 293.444 L 325.193 291.540 328.221 290.365 C 347.880 282.738,363.238 271.549,370.484 259.574 C 370.874 258.929,371.292 258.402,371.413 258.402 C 371.534 258.402,375.319 259.144,379.823 260.052 C 388.790 261.860,389.296 261.903,391.225 261.020 C 393.818 259.832,394.939 256.235,393.562 253.518 C 392.582 251.583,392.386 251.511,383.130 249.675 L 375.994 248.260 376.114 247.747 C 376.180 247.464,376.533 246.219,376.899 244.980 L 377.564 242.725 382.481 243.170 C 388.791 243.741,389.478 243.745,390.875 243.223 C 394.755 241.771,394.537 235.126,390.551 233.412 C 389.771 233.076,388.415 232.882,384.223 232.507 C 381.288 232.244,378.851 231.992,378.807 231.947 C 378.704 231.839,378.292 225.329,378.383 225.237 C 378.421 225.199,381.022 224.814,384.161 224.383 C 391.551 223.367,392.124 223.126,392.935 220.682 C 393.677 218.449,392.664 215.291,390.833 214.130 C 389.029 212.986,388.426 212.966,381.982 213.834 C 378.814 214.260,376.198 214.573,376.169 214.528 C 376.140 214.483,375.762 213.340,375.329 211.988 C 373.142 205.155,369.416 197.404,365.512 191.565 L 364.223 189.637 365.612 178.886 C 368.574 155.951,368.903 152.990,368.787 150.307 C 368.342 140.038,360.830 132.685,350.820 132.719 C 346.559 132.734,343.801 133.503,335.656 136.951 C 333.120 138.025,327.514 140.255,323.198 141.908 L 315.350 144.914 313.771 143.699 C 296.451 130.377,271.356 125.444,247.279 130.629 C 245.456 131.021,243.903 131.276,243.826 131.194 C 243.749 131.112,241.267 127.587,238.310 123.361 C 225.083 104.455,221.130 99.496,217.765 97.582 C 208.876 92.528,196.855 97.561,194.124 107.480 C 194.031 107.818,193.908 90.758,193.851 69.570 L 193.748 31.045 193.275 29.508 C 190.937 21.914,185.473 16.767,178.176 15.284 C 177.275 15.100,176.092 14.860,175.548 14.750 C 174.599 14.557,27.638 14.441,27.442 14.633 M178.223 17.365 C 183.679 18.836,187.810 22.272,190.151 27.286 C 191.846 30.916,191.679 25.968,191.799 76.244 L 191.906 121.033 194.037 114.422 C 195.209 110.786,196.510 107.091,196.927 106.211 C 201.153 97.302,212.434 94.756,219.004 101.228 C 221.710 103.895,227.265 111.326,237.385 125.820 C 243.566 134.673,242.877 133.897,244.206 133.502 C 254.074 130.571,269.025 129.895,280.594 131.854 C 293.172 133.985,304.054 138.774,313.787 146.461 L 314.884 147.328 323.887 143.874 C 328.838 141.974,334.780 139.615,337.090 138.631 C 344.310 135.558,347.047 134.790,350.820 134.778 C 359.504 134.752,366.249 141.335,366.731 150.307 C 366.855 152.611,366.712 153.898,363.804 176.543 L 362.041 190.278 363.584 192.572 C 367.792 198.828,371.383 206.292,373.565 213.320 C 374.037 214.841,374.484 216.276,374.558 216.509 C 374.692 216.930,374.723 216.928,381.045 216.052 C 384.541 215.567,387.720 215.224,388.115 215.287 C 390.868 215.732,392.239 219.801,390.106 221.199 C 389.769 221.420,387.386 221.833,382.872 222.455 C 379.169 222.965,376.104 223.418,376.059 223.462 C 376.015 223.507,376.083 224.447,376.211 225.552 C 376.339 226.657,376.487 228.991,376.539 230.738 L 376.634 233.914 382.660 234.450 C 385.974 234.744,388.924 235.045,389.216 235.119 C 391.248 235.629,392.277 238.758,391.001 240.549 C 390.195 241.682,389.787 241.707,382.559 241.075 C 378.967 240.760,375.973 240.557,375.907 240.623 C 375.841 240.689,375.613 241.539,375.400 242.511 C 375.188 243.484,374.606 245.497,374.108 246.986 C 373.609 248.475,373.235 249.729,373.276 249.773 C 373.316 249.816,377.183 250.620,381.869 251.558 C 388.050 252.796,390.547 253.377,390.966 253.676 C 392.803 254.984,392.104 258.476,389.832 259.344 L 388.864 259.714 379.729 257.898 C 374.705 256.899,370.502 256.050,370.389 256.010 C 370.277 255.971,369.723 256.698,369.160 257.625 C 361.068 270.941,345.136 282.145,323.007 290.083 C 320.840 290.860,319.066 291.542,319.065 291.598 C 319.063 291.655,322.727 292.934,327.205 294.442 C 362.934 306.467,366.605 308.476,367.141 316.291 C 367.805 325.976,359.679 331.304,342.127 332.691 C 337.163 333.083,331.101 333.620,323.668 334.326 C 320.625 334.615,315.288 335.075,311.808 335.348 C 308.329 335.620,305.454 335.872,305.419 335.906 C 305.385 335.940,305.253 337.489,305.126 339.347 C 304.338 350.881,301.124 362.618,297.678 366.542 C 295.058 369.526,289.420 366.980,290.041 363.094 C 290.111 362.654,290.665 361.332,291.271 360.154 C 294.619 353.656,296.065 346.918,296.523 335.695 C 296.846 327.764,296.950 327.653,304.498 327.136 C 310.400 326.732,320.021 325.930,326.434 325.307 C 329.308 325.028,333.504 324.656,335.758 324.480 C 348.892 323.455,356.886 321.380,358.311 318.624 C 358.978 317.334,358.397 315.622,356.972 314.679 C 354.726 313.193,326.030 303.056,305.533 296.509 C 300.810 295.000,299.982 294.284,299.829 291.579 C 299.648 288.378,300.257 287.924,307.535 285.835 C 334.834 277.998,351.060 268.508,360.609 254.793 L 361.052 254.156 357.832 253.499 C 352.994 252.513,352.459 252.171,352.459 250.066 C 352.459 246.551,354.002 245.940,359.851 247.139 C 362.114 247.603,364.088 247.936,364.237 247.879 C 364.759 247.678,367.239 240.122,366.896 239.778 C 366.840 239.723,364.091 239.435,360.786 239.138 C 353.338 238.471,352.459 238.043,352.459 235.090 C 352.459 231.832,353.409 231.700,366.983 233.062 L 367.881 233.152 367.734 230.186 C 367.595 227.373,367.331 224.845,367.160 224.673 C 367.117 224.630,364.690 224.924,361.768 225.327 C 353.989 226.399,352.450 225.906,352.396 222.329 C 352.363 220.116,352.859 219.894,359.992 218.929 C 364.248 218.353,365.779 218.074,365.779 217.876 C 365.779 214.969,360.337 203.558,355.610 196.551 C 352.828 192.428,352.676 191.702,353.592 186.924 C 353.759 186.057,354.496 180.553,355.232 174.693 C 355.968 168.832,356.943 161.178,357.401 157.684 C 358.507 149.231,358.319 147.793,355.816 145.505 C 352.777 142.728,348.794 143.102,339.681 147.019 C 332.439 150.132,314.850 156.762,313.834 156.762 C 312.478 156.762,311.796 156.403,309.732 154.603 C 293.285 140.260,268.441 135.638,244.707 142.507 C 241.016 143.575,239.537 143.433,238.085 141.873 C 237.155 140.874,224.214 122.894,220.706 117.725 C 214.166 108.090,212.468 106.346,209.642 106.357 C 206.683 106.369,205.273 107.931,203.783 112.848 C 203.380 114.178,200.520 123.105,197.427 132.685 L 191.803 150.104 191.803 251.495 C 191.803 363.841,191.923 354.267,190.474 357.647 C 188.153 363.062,183.896 366.772,178.279 368.278 L 176.537 368.745 102.357 368.806 C 49.441 368.850,27.677 368.803,26.434 368.642 C 19.053 367.691,13.215 362.546,11.208 355.225 L 10.758 353.586 10.758 192.828 L 10.758 32.070 11.208 30.430 C 13.172 23.264,19.003 18.024,26.127 17.024 C 26.803 16.929,60.922 16.864,101.947 16.881 L 176.537 16.910 178.223 17.365 M26.997 27.477 C 24.873 27.977,22.771 29.746,21.783 31.865 L 21.209 33.094 21.209 192.828 L 21.209 352.561 21.787 353.812 C 22.518 355.395,24.103 356.973,25.717 357.726 L 26.947 358.299 100.814 358.352 C 167.783 358.400,174.786 358.374,175.814 358.079 C 178.165 357.404,180.079 355.642,180.928 353.374 L 181.352 352.239 181.352 192.828 L 181.352 33.417 180.928 32.282 C 180.083 30.024,178.177 28.265,175.834 27.580 C 174.568 27.210,28.559 27.109,26.997 27.477 M175.922 29.811 C 177.015 30.352,178.420 31.782,178.903 32.846 C 179.519 34.204,179.519 351.452,178.903 352.809 C 178.420 353.873,177.015 355.304,175.922 355.844 C 174.672 356.463,27.803 356.487,26.639 355.869 C 25.642 355.339,24.232 353.948,23.702 352.971 L 23.258 352.152 23.258 192.828 C 23.258 37.934,23.269 33.484,23.639 32.787 C 24.448 31.264,26.143 29.841,27.561 29.494 C 29.257 29.080,175.074 29.391,175.922 29.811 M64.344 68.828 C 56.944 71.216,56.851 82.683,64.211 85.192 C 65.417 85.603,133.854 85.870,136.707 85.475 C 145.392 84.271,146.502 71.428,138.144 68.845 C 136.210 68.247,66.194 68.231,64.344 68.828 M137.454 70.804 C 142.780 72.386,143.192 80.699,138.059 83.020 L 136.988 83.504 102.459 83.564 C 65.481 83.629,65.353 83.625,63.737 82.626 C 59.434 79.967,60.103 72.501,64.789 70.882 C 66.331 70.350,135.674 70.276,137.454 70.804 M64.110 106.211 C 56.993 108.643,56.904 119.962,63.983 122.318 L 65.282 122.750 101.647 122.697 L 138.012 122.643 139.302 122.048 C 145.238 119.307,145.292 109.529,139.386 106.610 L 137.829 105.840 101.650 105.793 L 65.471 105.746 64.110 106.211 M137.302 107.990 C 142.504 109.436,143.271 117.562,138.448 120.142 L 137.602 120.594 101.648 120.648 C 69.679 120.695,65.587 120.666,64.740 120.385 C 59.497 118.643,59.569 109.982,64.842 108.159 C 66.052 107.741,135.820 107.579,137.302 107.990 M64.344 143.346 C 57.027 145.623,56.813 157.189,64.043 159.628 C 65.269 160.041,65.549 160.044,101.543 159.991 L 137.807 159.939 138.976 159.466 C 145.330 156.899,145.323 146.174,138.965 143.603 L 137.807 143.135 101.537 143.097 C 70.939 143.065,65.122 143.104,64.344 143.346 M137.625 145.385 C 142.912 146.955,143.000 155.883,137.747 157.673 C 136.547 158.082,66.306 158.166,64.951 157.760 C 59.492 156.125,59.480 147.314,64.935 145.365 C 66.119 144.942,136.198 144.961,137.625 145.385 M229.918 172.669 C 223.803 173.854,222.392 175.835,219.538 187.237 C 217.097 196.993,217.047 198.596,219.073 202.170 C 221.949 207.243,231.249 209.607,236.969 206.720 C 240.337 205.020,241.184 203.359,243.692 193.532 C 246.439 182.767,246.231 179.985,242.401 176.333 C 239.996 174.038,233.178 172.037,229.918 172.669 M235.829 175.407 C 241.181 176.819,244.137 180.466,243.553 184.938 C 243.293 186.935,239.930 199.905,239.343 201.176 C 237.427 205.326,233.355 206.775,227.664 205.331 C 222.316 203.975,219.672 201.093,219.672 196.618 C 219.672 194.949,223.097 181.046,223.928 179.345 C 225.945 175.214,230.003 173.871,235.829 175.407 M296.824 188.198 C 291.113 189.512,290.018 191.173,286.994 203.110 C 284.676 212.261,284.648 214.124,286.778 217.725 C 289.959 223.107,300.080 225.125,305.555 221.469 C 308.301 219.636,308.814 218.494,311.290 208.709 C 314.001 198.002,313.740 195.045,309.772 191.478 C 307.158 189.127,300.317 187.394,296.824 188.198 M303.306 190.786 C 308.485 192.093,310.835 194.587,311.021 198.975 C 311.115 201.183,308.032 214.333,306.859 216.732 C 304.902 220.730,300.865 222.115,295.287 220.700 C 289.944 219.346,287.521 216.822,287.335 212.418 C 287.246 210.316,290.384 197.079,291.542 194.672 C 293.516 190.569,297.385 189.291,303.306 190.786 M98.053 234.362 C 81.313 236.532,70.922 252.928,76.112 268.984 C 83.911 293.109,118.492 293.159,126.400 269.057 C 132.462 250.580,117.186 231.883,98.053 234.362 M104.919 236.567 C 124.624 239.537,132.623 263.861,118.529 277.955 C 105.710 290.773,83.589 285.470,78.058 268.253 C 72.495 250.938,86.972 233.861,104.919 236.567 M98.975 246.862 C 90.098 248.333,84.754 258.298,88.523 266.352 C 94.079 278.225,111.043 276.992,114.709 264.449 C 117.516 254.847,108.901 245.217,98.975 246.862 M103.844 249.079 C 111.398 250.860,115.399 259.536,111.736 266.189 C 106.850 275.059,94.514 274.455,90.279 265.139 C 86.480 256.783,94.791 246.945,103.844 249.079 " stroke="none" fill="#fcfcfc" fill-rule="evenodd"></path><path id="path1" d="M26.127 17.025 C 18.371 18.107,11.942 24.492,10.894 32.154 C 10.800 32.840,10.801 33.402,10.895 33.402 C 10.989 33.402,11.066 33.096,11.066 32.723 C 11.066 25.992,18.854 18.054,26.213 17.285 C 26.898 17.213,27.459 17.076,27.459 16.979 C 27.459 16.882,27.436 16.815,27.408 16.828 C 27.380 16.842,26.803 16.930,26.127 17.025 M175.000 17.042 C 175.000 17.136,175.300 17.214,175.666 17.215 C 181.197 17.226,187.639 22.078,190.269 28.213 C 191.688 31.522,191.598 28.239,191.598 77.143 C 191.598 112.343,191.650 121.311,191.855 121.308 C 192.010 121.306,192.952 118.682,194.242 114.661 C 197.140 105.625,198.053 103.836,201.076 101.268 C 206.521 96.642,214.006 96.712,218.799 101.433 C 221.506 104.100,227.060 111.531,237.180 126.025 C 239.973 130.026,242.423 133.471,242.623 133.681 C 242.978 134.052,243.053 134.046,245.520 133.438 C 269.888 127.434,295.275 132.202,312.807 146.075 C 313.822 146.878,314.745 147.536,314.860 147.538 C 315.254 147.544,333.098 140.623,337.295 138.836 C 344.385 135.818,347.260 135.000,350.820 134.988 C 357.910 134.965,363.724 139.460,365.913 146.658 C 366.843 149.720,366.731 152.050,365.005 165.471 C 364.208 171.670,363.163 179.831,362.683 183.607 L 361.810 190.471 363.354 192.753 C 367.942 199.534,372.152 208.593,374.079 215.833 C 374.446 217.212,374.452 217.219,375.083 217.113 C 379.537 216.362,387.776 215.421,388.399 215.593 C 390.045 216.048,391.294 218.230,390.764 219.728 C 390.249 221.186,390.132 221.222,382.690 222.247 C 378.975 222.758,375.895 223.217,375.845 223.267 C 375.796 223.317,375.869 224.422,376.008 225.723 C 376.147 227.024,376.290 229.446,376.327 231.104 L 376.393 234.119 382.437 234.655 C 389.386 235.271,389.315 235.258,390.235 236.066 C 391.966 237.585,391.585 240.608,389.590 241.197 C 388.998 241.372,387.559 241.305,383.028 240.895 C 375.744 240.235,375.653 240.234,375.520 240.830 C 375.463 241.084,375.273 241.936,375.098 242.725 C 374.922 243.514,374.355 245.431,373.838 246.985 C 373.321 248.540,372.954 249.867,373.022 249.934 C 373.089 250.002,376.978 250.825,381.664 251.763 C 390.425 253.518,391.189 253.748,391.498 254.718 C 391.568 254.941,391.714 255.123,391.822 255.123 C 392.156 255.123,391.444 253.974,390.882 253.606 C 390.564 253.397,386.931 252.572,381.850 251.555 C 377.175 250.618,373.316 249.816,373.276 249.773 C 373.235 249.729,373.609 248.475,374.108 246.986 C 374.606 245.497,375.188 243.484,375.400 242.511 C 375.613 241.539,375.841 240.689,375.907 240.623 C 375.973 240.557,378.967 240.760,382.559 241.075 C 389.787 241.707,390.195 241.682,391.001 240.549 C 392.277 238.758,391.248 235.629,389.216 235.119 C 388.924 235.045,385.974 234.744,382.660 234.450 L 376.634 233.914 376.539 230.738 C 376.487 228.991,376.339 226.657,376.211 225.552 C 376.083 224.447,376.015 223.507,376.059 223.462 C 376.104 223.418,379.169 222.965,382.872 222.455 C 387.386 221.833,389.769 221.420,390.106 221.199 C 392.239 219.801,390.868 215.732,388.115 215.287 C 387.720 215.224,384.541 215.567,381.045 216.052 C 374.723 216.928,374.692 216.930,374.558 216.509 C 374.484 216.276,374.037 214.841,373.565 213.320 C 371.383 206.292,367.792 198.828,363.584 192.572 L 362.041 190.278 363.804 176.543 C 366.712 153.898,366.855 152.611,366.731 150.307 C 366.249 141.334,359.504 134.752,350.820 134.778 C 347.047 134.790,344.310 135.558,337.090 138.631 C 334.780 139.615,328.838 141.974,323.887 143.874 L 314.884 147.328 313.787 146.461 C 304.054 138.774,293.172 133.985,280.594 131.854 C 269.025 129.895,254.074 130.571,244.206 133.502 C 242.877 133.897,243.566 134.673,237.385 125.820 C 227.265 111.326,221.710 103.895,219.004 101.228 C 212.434 94.756,201.153 97.302,196.927 106.211 C 196.510 107.091,195.209 110.786,194.037 114.422 L 191.906 121.033 191.799 76.244 C 191.679 25.968,191.846 30.916,190.151 27.286 C 187.492 21.592,182.475 17.893,176.252 17.042 C 175.563 16.948,175.000 16.948,175.000 17.042 M26.792 27.272 C 24.668 27.772,22.567 29.541,21.578 31.660 L 21.004 32.889 21.004 192.828 L 21.004 352.766 21.582 354.017 C 22.314 355.600,23.899 357.178,25.512 357.931 L 26.742 358.504 100.814 358.557 C 167.970 358.604,174.991 358.579,176.019 358.284 C 178.369 357.609,180.284 355.847,181.133 353.579 L 181.557 352.444 181.557 192.828 L 181.557 33.212 181.133 32.077 C 180.288 29.819,178.382 28.060,176.039 27.375 C 174.773 27.005,28.354 26.904,26.792 27.272 M175.834 27.580 C 178.177 28.265,180.083 30.024,180.928 32.282 L 181.352 33.417 181.352 192.828 L 181.352 352.239 180.928 353.374 C 180.079 355.642,178.165 357.404,175.814 358.079 C 174.786 358.374,167.783 358.400,100.814 358.352 L 26.947 358.299 25.717 357.726 C 24.103 356.973,22.518 355.395,21.787 353.812 L 21.209 352.561 21.209 192.828 L 21.209 33.094 21.783 31.865 C 22.771 29.746,24.873 27.977,26.997 27.477 C 28.559 27.109,174.568 27.210,175.834 27.580 M64.789 70.882 C 60.103 72.501,59.434 79.967,63.737 82.626 C 65.353 83.625,65.481 83.629,102.459 83.564 L 136.988 83.504 138.059 83.020 C 143.192 80.699,142.780 72.386,137.454 70.804 C 135.674 70.276,66.331 70.350,64.789 70.882 M137.224 71.002 C 142.517 72.574,142.948 80.513,137.865 82.810 L 136.783 83.299 102.459 83.359 C 65.697 83.424,65.557 83.420,63.942 82.422 C 59.693 79.796,60.353 72.690,64.994 71.087 C 66.517 70.561,135.466 70.480,137.224 71.002 M207.459 106.538 C 205.602 107.382,204.782 108.672,203.578 112.643 C 203.175 113.973,200.315 122.900,197.222 132.480 L 191.598 149.899 191.598 251.290 C 191.598 363.636,191.718 354.062,190.269 357.442 C 187.641 363.571,181.192 368.429,175.666 368.441 C 175.300 368.442,175.000 368.520,175.000 368.614 C 175.000 368.708,175.563 368.708,176.252 368.613 C 182.734 367.727,187.841 363.789,190.474 357.647 C 191.923 354.267,191.803 363.841,191.803 251.495 L 191.803 150.104 197.427 132.685 C 200.520 123.105,203.380 114.178,203.783 112.848 C 205.273 107.931,206.683 106.369,209.642 106.357 C 212.468 106.346,214.166 108.090,220.706 117.725 C 224.214 122.894,237.155 140.874,238.085 141.873 C 239.537 143.433,241.016 143.575,244.707 142.507 C 268.441 135.638,293.285 140.260,309.732 154.603 C 311.796 156.403,312.478 156.762,313.834 156.762 C 314.850 156.762,332.439 150.132,339.681 147.019 C 348.794 143.102,352.777 142.728,355.816 145.505 C 358.319 147.793,358.507 149.231,357.401 157.684 C 356.943 161.178,355.968 168.832,355.232 174.693 C 354.496 180.553,353.759 186.057,353.592 186.924 C 352.676 191.702,352.828 192.428,355.610 196.551 C 360.337 203.558,365.779 214.969,365.779 217.876 C 365.779 218.074,364.248 218.353,359.992 218.929 C 352.859 219.894,352.363 220.116,352.396 222.329 C 352.450 225.906,353.989 226.399,361.768 225.327 C 364.690 224.924,367.117 224.630,367.160 224.673 C 367.331 224.845,367.595 227.373,367.734 230.186 L 367.881 233.152 366.983 233.062 C 353.409 231.700,352.459 231.832,352.459 235.090 C 352.459 238.043,353.338 238.471,360.786 239.138 C 364.091 239.435,366.840 239.723,366.896 239.778 C 367.239 240.122,364.759 247.678,364.237 247.879 C 364.088 247.936,362.114 247.603,359.851 247.139 C 354.002 245.940,352.459 246.551,352.459 250.066 C 352.459 252.171,352.994 252.513,357.832 253.499 L 361.052 254.156 360.609 254.793 C 351.060 268.508,334.834 277.998,307.535 285.835 C 300.257 287.924,299.648 288.378,299.829 291.579 C 299.982 294.284,300.810 295.000,305.533 296.509 C 326.030 303.056,354.726 313.193,356.972 314.679 C 358.397 315.622,358.978 317.334,358.311 318.624 C 356.886 321.380,348.892 323.455,335.758 324.480 C 333.504 324.656,329.308 325.028,326.434 325.307 C 320.021 325.930,310.400 326.732,304.498 327.136 C 296.950 327.653,296.846 327.764,296.523 335.695 C 296.065 346.918,294.619 353.656,291.271 360.154 C 290.665 361.332,290.111 362.654,290.041 363.094 C 289.420 366.980,295.058 369.526,297.678 366.542 C 301.124 362.618,304.338 350.881,305.126 339.347 C 305.253 337.489,305.385 335.940,305.419 335.906 C 305.454 335.872,308.329 335.620,311.808 335.348 C 315.288 335.075,320.625 334.615,323.668 334.326 C 331.101 333.620,337.163 333.083,342.127 332.691 C 359.679 331.304,367.805 325.976,367.141 316.291 C 366.605 308.476,362.934 306.467,327.205 294.442 C 322.727 292.934,319.063 291.655,319.065 291.598 C 319.066 291.542,320.840 290.860,323.007 290.083 C 345.134 282.146,361.059 270.947,369.158 257.629 C 369.853 256.487,370.280 255.975,370.490 256.035 C 373.707 256.959,388.858 259.657,389.592 259.438 C 390.550 259.151,391.451 258.299,391.773 257.377 C 392.088 256.471,391.765 256.648,391.285 257.643 C 390.974 258.287,390.623 258.627,389.890 258.993 L 388.909 259.482 379.476 257.595 C 374.287 256.558,370.017 255.739,369.986 255.775 C 369.956 255.811,369.445 256.624,368.851 257.582 C 360.559 270.961,344.877 281.959,322.802 289.878 C 320.072 290.857,318.861 291.385,318.860 291.598 C 318.858 291.821,321.105 292.662,327.001 294.646 C 348.452 301.866,357.855 305.450,361.423 307.766 C 366.786 311.246,368.381 316.628,365.709 322.226 C 362.746 328.435,355.918 331.380,341.922 332.486 C 336.958 332.878,330.896 333.415,323.463 334.121 C 320.420 334.410,315.083 334.870,311.604 335.143 C 308.124 335.415,305.249 335.667,305.214 335.701 C 305.180 335.735,305.048 337.284,304.921 339.142 C 304.133 350.676,300.919 362.413,297.473 366.337 C 295.407 368.690,291.404 367.652,290.381 364.497 C 290.045 363.461,290.225 362.789,291.500 360.312 C 294.821 353.864,296.271 347.094,296.728 335.900 C 297.051 327.969,297.155 327.857,304.703 327.341 C 310.604 326.937,320.226 326.135,326.639 325.512 C 329.513 325.233,333.709 324.861,335.963 324.685 C 349.097 323.660,357.091 321.585,358.516 318.829 C 359.241 317.428,358.628 315.434,357.177 314.474 C 354.931 312.988,326.235 302.851,305.738 296.304 C 301.130 294.832,300.219 294.079,300.039 291.591 C 299.825 288.630,300.558 288.101,307.740 286.040 C 334.063 278.483,350.074 269.391,359.662 256.557 C 361.702 253.826,361.821 254.066,358.043 253.296 C 353.321 252.333,352.664 251.939,352.664 250.066 C 352.664 246.835,354.232 246.230,359.692 247.356 C 364.778 248.406,364.491 248.457,365.330 246.354 C 366.117 244.381,367.342 239.815,367.138 239.611 C 367.062 239.535,364.296 239.230,360.991 238.934 C 354.197 238.324,353.916 238.244,353.125 236.683 C 351.984 234.432,353.215 232.270,355.603 232.334 C 356.661 232.362,365.199 233.085,367.089 233.306 L 368.093 233.424 367.948 230.260 C 367.807 227.168,367.544 224.648,367.342 224.446 C 367.286 224.390,364.732 224.687,361.666 225.104 C 354.784 226.042,353.959 225.925,352.987 223.878 C 351.546 220.840,352.571 220.166,360.197 219.134 C 366.989 218.214,366.412 218.718,365.143 214.818 C 363.164 208.732,360.163 202.791,355.815 196.346 C 352.967 192.124,352.954 192.060,353.899 186.475 C 354.118 185.179,354.854 179.647,355.535 174.180 C 356.216 168.714,357.148 161.383,357.606 157.889 C 358.747 149.179,358.550 147.612,356.021 145.300 C 352.932 142.478,348.652 142.869,339.476 146.814 C 333.323 149.459,314.642 156.557,313.834 156.557 C 312.693 156.557,311.924 156.131,309.937 154.398 C 293.463 140.031,268.374 135.393,244.502 142.302 C 240.926 143.336,239.730 143.214,238.290 141.668 C 237.359 140.669,224.419 122.689,220.911 117.520 C 213.471 106.559,211.305 104.791,207.459 106.538 M64.842 108.159 C 59.569 109.982,59.497 118.643,64.740 120.385 C 65.587 120.666,69.679 120.695,101.648 120.648 L 137.602 120.594 138.448 120.142 C 143.271 117.562,142.504 109.436,137.302 107.990 C 135.820 107.579,66.052 107.741,64.842 108.159 M137.097 108.195 C 142.246 109.626,143.004 117.391,138.243 119.937 L 137.398 120.389 101.648 120.443 C 69.863 120.490,65.792 120.461,64.945 120.180 C 59.753 118.455,59.825 110.170,65.047 108.364 C 66.257 107.946,135.615 107.783,137.097 108.195 M64.935 145.365 C 59.480 147.314,59.492 156.125,64.951 157.760 C 66.306 158.166,136.547 158.082,137.747 157.673 C 143.000 155.883,142.912 146.955,137.625 145.385 C 136.198 144.961,66.119 144.942,64.935 145.365 M137.374 145.577 C 142.653 147.166,142.782 155.683,137.555 157.464 C 136.344 157.877,66.523 157.965,65.156 157.555 C 59.750 155.936,59.738 147.500,65.140 145.570 C 66.293 145.158,136.004 145.165,137.374 145.577 M229.940 174.799 C 225.231 175.789,224.102 177.546,221.520 187.907 C 219.008 197.986,219.097 199.618,222.327 202.794 C 225.111 205.531,231.883 206.776,235.295 205.178 C 238.640 203.612,239.341 202.266,241.677 192.930 C 244.221 182.759,244.176 181.354,241.202 178.209 C 239.034 175.918,233.129 174.129,229.940 174.799 M235.635 175.618 C 240.873 176.992,243.996 180.759,243.336 184.909 C 242.982 187.138,239.665 199.831,239.138 200.971 C 237.246 205.071,233.333 206.513,227.869 205.127 C 222.618 203.795,219.877 200.876,219.877 196.618 C 219.877 195.146,223.382 181.087,224.133 179.550 C 226.131 175.457,229.991 174.137,235.635 175.618 M297.336 190.226 C 292.749 191.271,291.747 192.852,289.128 203.176 C 286.615 213.080,286.694 215.014,289.738 218.026 C 292.630 220.889,299.545 222.194,302.947 220.519 C 306.284 218.876,306.871 217.737,309.255 208.269 C 311.782 198.228,311.708 196.521,308.611 193.417 C 306.364 191.164,300.500 189.505,297.336 190.226 M303.153 191.006 C 308.170 192.268,310.610 194.806,310.814 198.975 C 310.913 200.978,307.765 214.255,306.654 216.527 C 304.721 220.476,300.846 221.854,295.492 220.496 C 290.255 219.167,287.758 216.633,287.545 212.429 C 287.448 210.522,290.645 197.166,291.747 194.877 C 293.705 190.806,297.390 189.556,303.153 191.006 M98.463 236.412 C 77.780 239.092,69.464 264.239,84.559 278.460 C 98.649 291.734,122.027 283.942,125.302 264.881 C 128.051 248.883,114.352 234.352,98.463 236.412 M104.714 236.771 C 124.367 239.734,132.338 263.735,118.324 277.750 C 105.575 290.499,83.780 285.221,78.263 268.048 C 72.832 251.143,87.217 234.134,104.714 236.771 M98.770 246.657 C 91.001 247.944,85.704 255.870,87.373 263.710 C 89.686 274.575,103.297 278.630,111.188 270.805 C 121.070 261.006,112.520 244.379,98.770 246.657 M104.556 247.117 C 115.257 249.854,118.810 262.839,110.983 270.600 C 101.976 279.533,86.698 272.637,87.362 259.939 C 87.816 251.236,96.204 244.981,104.556 247.117 M10.894 353.502 C 11.782 359.993,16.577 365.731,22.848 367.806 C 24.670 368.409,27.459 368.915,27.459 368.642 C 27.459 368.564,26.898 368.442,26.213 368.371 C 18.854 367.602,11.066 359.664,11.066 352.933 C 11.066 352.559,10.989 352.254,10.895 352.254 C 10.801 352.254,10.800 352.816,10.894 353.502 " stroke="none" fill="#94d4f4" fill-rule="evenodd"></path><path id="path2" d="M27.459 16.979 C 27.459 17.076,26.898 17.213,26.213 17.285 C 18.854 18.054,11.066 25.992,11.066 32.723 C 11.066 33.096,10.973 33.402,10.861 33.402 C 10.724 33.402,10.656 86.680,10.656 192.828 C 10.656 298.975,10.724 352.254,10.861 352.254 C 10.973 352.254,11.066 352.559,11.066 352.933 C 11.066 359.664,18.854 367.602,26.213 368.371 C 26.898 368.442,27.459 368.580,27.459 368.677 C 27.459 368.774,60.356 368.852,101.230 368.852 C 150.273 368.852,175.000 368.784,175.000 368.648 C 175.000 368.535,175.300 368.442,175.666 368.441 C 181.192 368.429,187.641 363.571,190.269 357.442 C 191.718 354.062,191.598 363.636,191.598 251.290 L 191.598 149.899 197.222 132.480 C 200.315 122.900,203.175 113.973,203.578 112.643 C 205.103 107.613,206.457 106.163,209.642 106.152 C 212.702 106.142,214.242 107.696,220.911 117.520 C 224.419 122.689,237.359 140.669,238.290 141.668 C 239.730 143.214,240.926 143.336,244.502 142.302 C 268.374 135.393,293.463 140.031,309.937 154.398 C 311.924 156.131,312.693 156.557,313.834 156.557 C 314.642 156.557,333.323 149.459,339.476 146.814 C 348.652 142.869,352.932 142.478,356.021 145.300 C 358.550 147.612,358.747 149.179,357.606 157.889 C 357.148 161.383,356.216 168.714,355.535 174.180 C 354.854 179.647,354.118 185.179,353.899 186.475 C 352.954 192.060,352.967 192.124,355.815 196.346 C 360.163 202.791,363.164 208.732,365.143 214.818 C 366.412 218.718,366.989 218.214,360.197 219.134 C 352.571 220.166,351.546 220.840,352.987 223.878 C 353.959 225.925,354.784 226.042,361.666 225.104 C 364.732 224.687,367.286 224.390,367.342 224.446 C 367.544 224.648,367.807 227.168,367.948 230.260 L 368.093 233.424 367.089 233.306 C 365.199 233.085,356.661 232.362,355.603 232.334 C 353.215 232.270,351.984 234.432,353.125 236.683 C 353.916 238.244,354.197 238.324,360.991 238.934 C 364.296 239.230,367.062 239.535,367.138 239.611 C 367.342 239.815,366.117 244.381,365.330 246.354 C 364.491 248.457,364.778 248.406,359.692 247.356 C 354.232 246.230,352.664 246.835,352.664 250.066 C 352.664 251.939,353.321 252.333,358.043 253.296 C 361.821 254.066,361.702 253.826,359.662 256.557 C 350.074 269.391,334.063 278.483,307.740 286.040 C 300.558 288.101,299.825 288.630,300.039 291.591 C 300.219 294.079,301.130 294.832,305.738 296.304 C 326.235 302.851,354.931 312.988,357.177 314.474 C 358.628 315.434,359.241 317.428,358.516 318.829 C 357.091 321.585,349.097 323.660,335.963 324.685 C 333.709 324.861,329.513 325.233,326.639 325.512 C 320.226 326.135,310.604 326.937,304.703 327.341 C 297.155 327.857,297.051 327.969,296.728 335.900 C 296.271 347.094,294.821 353.864,291.500 360.312 C 290.225 362.789,290.045 363.461,290.381 364.497 C 291.404 367.652,295.407 368.690,297.473 366.337 C 300.919 362.413,304.133 350.676,304.921 339.142 C 305.048 337.284,305.180 335.735,305.214 335.701 C 305.249 335.667,308.124 335.415,311.604 335.143 C 315.083 334.870,320.420 334.410,323.463 334.121 C 330.896 333.415,336.958 332.878,341.922 332.486 C 355.918 331.380,362.746 328.435,365.709 322.226 C 368.381 316.628,366.786 311.246,361.423 307.766 C 357.855 305.450,348.452 301.866,327.001 294.646 C 321.105 292.662,318.858 291.821,318.860 291.598 C 318.861 291.385,320.072 290.857,322.802 289.878 C 344.877 281.959,360.559 270.961,368.851 257.582 C 369.445 256.624,369.956 255.811,369.986 255.775 C 370.017 255.739,374.287 256.558,379.476 257.595 L 388.909 259.482 389.877 258.993 C 390.555 258.650,390.973 258.259,391.273 257.684 C 391.508 257.234,391.770 256.834,391.855 256.796 C 392.078 256.697,392.043 255.123,391.817 255.123 C 391.712 255.123,391.568 254.941,391.498 254.718 C 391.189 253.748,390.425 253.518,381.664 251.763 C 376.978 250.825,373.089 250.002,373.022 249.934 C 372.954 249.867,373.321 248.540,373.838 246.985 C 374.355 245.431,374.922 243.514,375.098 242.725 C 375.273 241.936,375.463 241.084,375.520 240.830 C 375.653 240.234,375.744 240.235,383.028 240.895 C 387.559 241.305,388.998 241.372,389.590 241.197 C 391.585 240.608,391.966 237.585,390.235 236.066 C 389.315 235.258,389.386 235.271,382.437 234.655 L 376.393 234.119 376.327 231.104 C 376.290 229.446,376.147 227.024,376.008 225.723 C 375.869 224.422,375.796 223.317,375.845 223.267 C 375.895 223.217,378.975 222.758,382.690 222.247 C 390.132 221.222,390.249 221.186,390.764 219.728 C 391.294 218.230,390.045 216.048,388.399 215.593 C 387.776 215.421,379.537 216.362,375.083 217.113 C 374.452 217.219,374.446 217.212,374.079 215.833 C 372.152 208.593,367.942 199.534,363.354 192.753 L 361.810 190.471 362.683 183.607 C 363.163 179.831,364.208 171.670,365.005 165.471 C 367.282 147.767,366.966 145.067,361.997 139.781 C 356.259 133.674,349.985 133.434,337.295 138.836 C 333.098 140.623,315.254 147.544,314.860 147.538 C 314.745 147.536,313.822 146.878,312.807 146.075 C 295.275 132.202,269.888 127.434,245.520 133.438 C 243.053 134.046,242.978 134.052,242.623 133.681 C 242.423 133.471,239.973 130.026,237.180 126.025 C 227.060 111.531,221.506 104.100,218.799 101.433 C 214.006 96.712,206.521 96.642,201.076 101.268 C 198.053 103.836,197.140 105.625,194.242 114.661 C 192.952 118.682,192.010 121.306,191.855 121.308 C 191.650 121.311,191.598 112.343,191.598 77.143 C 191.598 28.239,191.688 31.522,190.269 28.213 C 187.639 22.078,181.197 17.226,175.666 17.215 C 175.300 17.214,175.000 17.121,175.000 17.008 C 175.000 16.872,150.273 16.803,101.230 16.803 C 60.356 16.803,27.459 16.882,27.459 16.979 M176.039 27.375 C 178.382 28.060,180.288 29.819,181.133 32.077 L 181.557 33.212 181.557 192.828 L 181.557 352.444 181.133 353.579 C 180.284 355.847,178.369 357.609,176.019 358.284 C 174.991 358.579,167.970 358.604,100.814 358.557 L 26.742 358.504 25.512 357.931 C 23.899 357.178,22.314 355.600,21.582 354.017 L 21.004 352.766 21.004 192.828 L 21.004 32.889 21.578 31.660 C 22.567 29.541,24.668 27.772,26.792 27.272 C 28.354 26.904,174.773 27.005,176.039 27.375 M64.994 71.087 C 60.353 72.690,59.693 79.796,63.942 82.422 C 65.557 83.420,65.697 83.424,102.459 83.359 L 136.783 83.299 137.865 82.810 C 142.948 80.513,142.517 72.574,137.224 71.002 C 135.466 70.480,66.517 70.561,64.994 71.087 M65.047 108.364 C 59.825 110.170,59.753 118.455,64.945 120.180 C 65.792 120.461,69.863 120.490,101.648 120.443 L 137.398 120.389 138.243 119.937 C 143.004 117.391,142.246 109.626,137.097 108.195 C 135.615 107.783,66.257 107.946,65.047 108.364 M65.140 145.570 C 59.738 147.500,59.750 155.936,65.156 157.555 C 66.523 157.965,136.344 157.877,137.555 157.464 C 142.782 155.683,142.653 147.166,137.374 145.577 C 136.004 145.165,66.293 145.158,65.140 145.570 M230.145 175.006 C 227.636 175.528,225.196 177.372,224.133 179.550 C 223.382 181.087,219.877 195.146,219.877 196.618 C 219.877 204.293,231.941 208.857,237.510 203.288 C 239.057 201.741,239.539 200.453,241.465 192.725 C 243.981 182.630,243.945 181.532,240.997 178.414 C 238.886 176.182,233.152 174.382,230.145 175.006 M297.541 190.433 C 292.959 191.468,291.952 193.057,289.332 203.381 C 286.861 213.117,286.934 214.844,289.943 217.821 C 292.805 220.654,299.436 221.942,302.753 220.309 C 306.078 218.672,306.667 217.526,309.050 208.064 C 311.537 198.186,311.471 196.694,308.406 193.622 C 306.216 191.427,300.530 189.758,297.541 190.433 M98.668 236.616 C 78.038 239.290,69.750 264.111,84.764 278.255 C 100.114 292.716,125.410 281.763,125.410 260.656 C 125.410 246.475,112.455 234.830,98.668 236.616 M104.761 246.912 C 115.513 249.662,119.092 262.967,111.188 270.805 C 103.297 278.630,89.686 274.575,87.373 263.710 C 85.180 253.406,94.594 244.312,104.761 246.912 " stroke="none" fill="#2cace4" fill-rule="evenodd"></path></g></svg>