<svg id="svg" version="1.1" xmlns="http://www.w3.org/2000/svg" xmlns:xlink="http://www.w3.org/1999/xlink" width="400" height="369.263836646964" viewBox="0, 0, 400,369.263836646964"><g id="svgg"><path id="path0" d="M0.026 8.651 C 0.043 14.224,0.116 16.866,0.232 16.077 C 1.417 7.998,8.113 1.365,16.228 0.232 C 17.066 0.115,14.453 0.043,8.759 0.026 L 0.000 0.000 0.026 8.651 M173.710 0.232 C 180.291 1.197,185.493 5.042,188.272 10.995 C 190.050 14.803,189.875 9.612,190.001 62.347 L 190.113 109.326 192.348 102.392 C 193.578 98.579,194.942 94.703,195.380 93.780 C 199.813 84.435,211.645 81.765,218.536 88.553 C 221.375 91.350,227.201 99.144,237.816 114.347 C 244.299 123.633,243.576 122.819,244.971 122.405 C 255.321 119.331,271.003 118.621,283.138 120.677 C 296.331 122.912,307.745 127.935,317.953 135.998 L 319.105 136.907 328.548 133.284 C 333.741 131.291,339.973 128.817,342.397 127.785 C 349.969 124.562,352.840 123.756,356.797 123.744 C 365.907 123.716,372.981 130.620,373.487 140.032 C 373.617 142.448,373.467 143.799,370.417 167.551 L 368.567 181.958 370.185 184.363 C 374.600 190.925,378.366 198.754,380.655 206.126 C 381.150 207.722,381.619 209.227,381.697 209.471 C 381.837 209.913,381.870 209.910,388.501 208.992 C 392.168 208.483,395.502 208.123,395.916 208.190 C 398.804 208.656,400.242 212.924,398.004 214.390 C 397.651 214.622,395.152 215.056,390.417 215.708 C 386.533 216.242,383.318 216.718,383.271 216.765 C 383.225 216.811,383.296 217.797,383.431 218.957 C 383.565 220.116,383.719 222.563,383.774 224.395 L 383.874 227.727 390.194 228.289 C 393.670 228.598,396.765 228.914,397.071 228.991 C 399.203 229.526,400.282 232.808,398.943 234.687 C 398.098 235.875,397.670 235.901,390.089 235.238 C 386.321 234.908,383.181 234.695,383.112 234.764 C 383.042 234.834,382.803 235.725,382.580 236.745 C 382.357 237.765,381.747 239.877,381.224 241.438 C 380.701 243.000,380.309 244.315,380.351 244.361 C 380.394 244.407,384.441 245.248,389.345 246.230 C 398.423 248.048,399.105 248.251,399.678 249.305 C 399.941 249.789,399.984 232.849,399.991 124.933 L 400.000 0.000 286.244 0.026 C 223.678 0.041,173.038 0.133,173.710 0.232 M17.140 11.195 C 14.912 11.720,12.708 13.575,11.671 15.798 L 11.069 17.088 11.069 184.632 L 11.069 352.176 11.676 353.488 C 12.443 355.148,14.105 356.804,15.798 357.593 L 17.088 358.195 94.567 358.250 C 164.810 358.300,172.156 358.273,173.234 357.964 C 175.700 357.255,177.708 355.408,178.598 353.028 L 179.044 351.838 179.044 184.632 L 179.044 17.426 178.598 16.235 C 177.712 13.867,175.713 12.022,173.255 11.303 C 171.928 10.915,18.778 10.809,17.140 11.195 M132.998 56.642 C 138.585 58.301,139.017 67.020,133.633 69.454 L 132.509 69.962 96.292 70.025 C 57.506 70.093,57.372 70.090,55.676 69.042 C 51.163 66.252,51.865 58.421,56.781 56.723 C 58.397 56.165,131.131 56.087,132.998 56.642 M206.641 94.338 C 204.693 95.222,203.833 96.575,202.571 100.741 C 202.148 102.136,199.148 111.499,195.904 121.548 L 190.005 139.819 190.005 246.168 C 190.005 364.007,190.131 353.965,188.611 357.511 C 185.858 363.933,180.563 368.027,173.710 369.032 C 173.038 369.131,223.678 369.223,286.244 369.238 L 400.000 369.264 400.000 310.532 L 400.000 251.800 399.536 252.738 C 399.041 253.737,398.162 254.406,397.077 254.612 C 396.555 254.710,379.418 251.499,377.430 250.930 C 377.210 250.867,376.761 251.404,376.033 252.601 C 367.538 266.571,350.834 278.317,327.624 286.642 C 325.352 287.458,323.491 288.173,323.490 288.232 C 323.488 288.291,327.331 289.633,332.029 291.214 C 369.504 303.828,373.355 305.935,373.917 314.132 C 374.614 324.291,366.090 329.879,347.680 331.334 C 342.473 331.745,336.115 332.309,328.318 333.049 C 325.126 333.352,319.528 333.835,315.879 334.121 C 312.229 334.407,309.213 334.670,309.177 334.706 C 309.141 334.742,309.003 336.366,308.869 338.315 C 308.043 350.414,304.671 362.724,301.057 366.840 C 298.309 369.971,292.395 367.300,293.047 363.223 C 293.121 362.762,293.701 361.375,294.337 360.140 C 297.848 353.324,299.366 346.257,299.846 334.485 C 300.185 326.166,300.294 326.049,308.210 325.507 C 314.401 325.084,324.493 324.242,331.220 323.589 C 334.234 323.296,338.635 322.906,340.999 322.721 C 354.776 321.647,363.161 319.470,364.655 316.579 C 365.355 315.226,364.745 313.431,363.250 312.441 C 360.895 310.883,330.796 300.250,309.296 293.383 C 304.342 291.800,303.473 291.049,303.313 288.212 C 303.123 284.854,303.762 284.378,311.396 282.187 C 340.031 273.966,357.050 264.012,367.065 249.627 L 367.531 248.959 364.152 248.270 C 359.078 247.236,358.517 246.877,358.517 244.669 C 358.517 240.982,360.136 240.341,366.271 241.599 C 368.644 242.086,370.714 242.435,370.871 242.375 C 371.418 242.165,374.020 234.238,373.660 233.878 C 373.601 233.820,370.717 233.518,367.251 233.207 C 359.439 232.507,358.517 232.058,358.517 228.960 C 358.517 225.544,359.513 225.404,373.752 226.834 L 374.693 226.928 374.539 223.817 C 374.393 220.866,374.116 218.215,373.936 218.035 C 373.891 217.989,371.346 218.298,368.281 218.720 C 360.122 219.845,358.508 219.328,358.451 215.575 C 358.416 213.255,358.937 213.022,366.419 212.009 C 370.882 211.405,372.488 211.113,372.488 210.904 C 372.488 207.856,366.781 195.887,361.822 188.537 C 358.904 184.213,358.745 183.451,359.706 178.439 C 359.880 177.530,360.654 171.757,361.425 165.610 C 362.197 159.463,363.221 151.435,363.700 147.770 C 364.860 138.903,364.664 137.395,362.038 134.995 C 358.850 132.082,354.672 132.474,345.114 136.583 C 337.518 139.848,319.069 146.803,318.003 146.803 C 316.581 146.803,315.866 146.426,313.700 144.538 C 296.449 129.494,270.391 124.646,245.496 131.850 C 241.625 132.970,240.074 132.822,238.550 131.186 C 237.574 130.138,224.001 111.278,220.322 105.857 C 212.587 94.463,210.408 92.627,206.641 94.338 M132.839 95.646 C 138.296 97.162,139.100 105.686,134.042 108.392 L 133.154 108.866 95.441 108.922 C 61.910 108.972,57.618 108.942,56.729 108.646 C 51.229 106.820,51.305 97.735,56.836 95.823 C 58.105 95.385,131.284 95.214,132.839 95.646 M133.178 134.869 C 138.723 136.516,138.816 145.881,133.306 147.758 C 132.047 148.187,58.371 148.275,56.950 147.850 C 51.224 146.134,51.212 136.893,56.933 134.848 C 58.175 134.404,131.681 134.424,133.178 134.869 M236.184 166.360 C 241.797 167.840,244.898 171.665,244.286 176.356 C 244.013 178.451,240.486 192.056,239.870 193.389 C 237.860 197.741,233.589 199.261,227.620 197.747 C 222.010 196.325,219.237 193.301,219.237 188.607 C 219.237 186.856,222.830 172.274,223.701 170.490 C 225.816 166.156,230.073 164.748,236.184 166.360 M306.960 182.490 C 312.392 183.861,314.857 186.478,315.053 191.080 C 315.151 193.395,311.918 207.188,310.687 209.705 C 308.635 213.899,304.400 215.351,298.549 213.867 C 292.945 212.446,290.404 209.800,290.208 205.180 C 290.115 202.975,293.406 189.091,294.621 186.566 C 296.692 182.262,300.749 180.922,306.960 182.490 M98.872 230.509 C 119.541 233.625,127.931 259.138,113.148 273.921 C 99.702 287.367,76.500 281.804,70.698 263.745 C 64.864 245.584,80.048 227.672,98.872 230.509 M92.638 241.308 C 83.327 242.851,77.722 253.303,81.675 261.752 C 87.503 274.205,105.296 272.912,109.141 259.756 C 112.085 249.684,103.049 239.583,92.638 241.308 M0.026 360.613 L 0.000 369.264 8.759 369.238 C 14.453 369.221,17.066 369.148,16.228 369.031 C 8.113 367.899,1.417 361.266,0.232 353.187 C 0.116 352.397,0.043 355.040,0.026 360.613 " stroke="none" fill="#ffffff" fill-rule="evenodd"></path><path id="path1" d="M16.228 0.231 C 8.756 1.280,2.640 6.776,0.579 14.293 L 0.107 16.013 0.107 184.632 L 0.107 353.251 0.579 354.970 C 2.684 362.649,8.808 368.045,16.550 369.044 C 17.853 369.212,40.682 369.261,96.185 369.215 L 173.992 369.152 175.819 368.662 C 181.712 367.082,186.176 363.190,188.611 357.511 C 190.131 353.965,190.005 364.007,190.005 246.168 L 190.005 139.819 195.904 121.548 C 199.148 111.499,202.148 102.136,202.571 100.741 C 204.134 95.583,205.613 93.945,208.717 93.933 C 211.681 93.921,213.461 95.750,220.322 105.857 C 224.001 111.278,237.574 130.138,238.550 131.186 C 240.074 132.822,241.625 132.970,245.496 131.850 C 270.391 124.646,296.449 129.494,313.700 144.538 C 315.866 146.426,316.581 146.803,318.003 146.803 C 319.069 146.803,337.518 139.848,345.114 136.583 C 354.672 132.474,358.850 132.082,362.038 134.995 C 364.664 137.395,364.860 138.903,363.700 147.770 C 363.221 151.435,362.197 159.463,361.425 165.610 C 360.654 171.757,359.880 177.530,359.706 178.439 C 358.745 183.451,358.904 184.213,361.822 188.537 C 366.781 195.887,372.488 207.856,372.488 210.904 C 372.488 211.113,370.882 211.405,366.419 212.009 C 358.937 213.022,358.416 213.255,358.451 215.575 C 358.508 219.328,360.122 219.845,368.281 218.720 C 371.346 218.298,373.891 217.989,373.936 218.035 C 374.116 218.215,374.393 220.866,374.539 223.817 L 374.693 226.928 373.752 226.834 C 359.513 225.404,358.517 225.544,358.517 228.960 C 358.517 232.058,359.439 232.507,367.251 233.207 C 370.717 233.518,373.601 233.820,373.660 233.878 C 374.020 234.238,371.418 242.165,370.871 242.375 C 370.714 242.435,368.644 242.086,366.271 241.599 C 360.136 240.341,358.517 240.982,358.517 244.669 C 358.517 246.877,359.078 247.236,364.152 248.270 L 367.531 248.959 367.065 249.627 C 357.050 264.012,340.031 273.966,311.396 282.187 C 303.762 284.378,303.123 284.854,303.313 288.212 C 303.473 291.049,304.342 291.800,309.296 293.383 C 330.796 300.250,360.895 310.883,363.250 312.441 C 364.745 313.431,365.355 315.226,364.655 316.579 C 363.161 319.470,354.776 321.647,340.999 322.721 C 338.635 322.906,334.234 323.296,331.220 323.589 C 324.493 324.242,314.401 325.084,308.210 325.507 C 300.294 326.049,300.185 326.166,299.846 334.485 C 299.366 346.257,297.848 353.324,294.337 360.140 C 293.701 361.375,293.121 362.762,293.047 363.223 C 292.395 367.300,298.309 369.971,301.057 366.840 C 304.671 362.724,308.043 350.414,308.869 338.315 C 309.003 336.366,309.141 334.742,309.177 334.706 C 309.213 334.670,312.229 334.407,315.879 334.121 C 319.528 333.835,325.126 333.352,328.318 333.049 C 336.115 332.309,342.473 331.745,347.680 331.334 C 366.090 329.879,374.614 324.291,373.917 314.132 C 373.355 305.935,369.504 303.828,332.029 291.214 C 327.331 289.633,323.488 288.291,323.490 288.232 C 323.491 288.173,325.352 287.458,327.624 286.642 C 350.836 278.316,367.547 266.564,376.034 252.597 C 376.625 251.625,377.206 250.863,377.324 250.904 C 377.442 250.945,381.851 251.836,387.121 252.884 L 396.702 254.788 397.718 254.400 C 400.101 253.490,400.833 249.827,398.907 248.455 C 398.467 248.142,395.848 247.533,389.365 246.234 C 384.450 245.250,380.394 244.407,380.351 244.361 C 380.309 244.315,380.701 243.000,381.224 241.438 C 381.747 239.877,382.357 237.765,382.580 236.745 C 382.803 235.725,383.042 234.834,383.112 234.764 C 383.181 234.695,386.321 234.908,390.089 235.238 C 397.670 235.901,398.098 235.875,398.943 234.687 C 400.282 232.808,399.203 229.526,397.071 228.991 C 396.765 228.914,393.670 228.598,390.194 228.289 L 383.874 227.727 383.774 224.395 C 383.719 222.563,383.565 220.116,383.431 218.957 C 383.296 217.797,383.225 216.811,383.271 216.765 C 383.318 216.718,386.533 216.242,390.417 215.708 C 395.152 215.056,397.651 214.622,398.004 214.390 C 400.242 212.924,398.804 208.656,395.916 208.190 C 395.502 208.123,392.168 208.483,388.501 208.992 C 381.870 209.910,381.837 209.913,381.697 209.471 C 381.619 209.227,381.150 207.722,380.655 206.126 C 378.366 198.754,374.600 190.925,370.185 184.363 L 368.567 181.958 370.417 167.551 C 373.467 143.799,373.617 142.448,373.487 140.032 C 372.981 130.621,365.906 123.716,356.797 123.744 C 352.840 123.756,349.969 124.562,342.397 127.785 C 339.973 128.817,333.741 131.291,328.548 133.284 L 319.105 136.907 317.953 135.998 C 307.745 127.935,296.331 122.912,283.138 120.677 C 271.003 118.621,255.321 119.331,244.971 122.405 C 243.576 122.819,244.299 123.633,237.816 114.347 C 227.201 99.144,221.375 91.350,218.536 88.553 C 211.645 81.765,199.813 84.435,195.380 93.780 C 194.942 94.703,193.578 98.579,192.348 102.392 L 190.113 109.326 190.001 62.347 C 189.875 9.612,190.050 14.803,188.272 10.995 C 185.817 5.737,181.483 2.132,175.761 0.589 L 173.992 0.112 95.755 0.081 C 52.724 0.064,16.937 0.132,16.228 0.231 M173.255 11.303 C 175.713 12.022,177.712 13.867,178.598 16.235 L 179.044 17.426 179.044 184.632 L 179.044 351.838 178.598 353.028 C 177.708 355.408,175.700 357.255,173.234 357.964 C 172.156 358.273,164.810 358.300,94.567 358.250 L 17.088 358.195 15.798 357.593 C 14.105 356.804,12.443 355.148,11.676 353.488 L 11.069 352.176 11.069 184.632 L 11.069 17.088 11.671 15.798 C 12.708 13.575,14.912 11.720,17.140 11.195 C 18.778 10.809,171.928 10.915,173.255 11.303 M56.781 56.723 C 51.865 58.421,51.163 66.252,55.676 69.042 C 57.372 70.090,57.506 70.093,96.292 70.025 L 132.509 69.962 133.633 69.454 C 139.017 67.020,138.585 58.301,132.998 56.642 C 131.131 56.087,58.397 56.165,56.781 56.723 M56.836 95.823 C 51.305 97.735,51.229 106.820,56.729 108.646 C 57.618 108.942,61.910 108.972,95.441 108.922 L 133.154 108.866 134.042 108.392 C 139.100 105.686,138.296 97.162,132.839 95.646 C 131.284 95.214,58.105 95.385,56.836 95.823 M56.933 134.848 C 51.212 136.893,51.224 146.134,56.950 147.850 C 58.371 148.275,132.047 148.187,133.306 147.758 C 138.816 145.881,138.723 136.516,133.178 134.869 C 131.681 134.424,58.175 134.404,56.933 134.848 M230.007 165.722 C 225.068 166.760,223.883 168.603,221.175 179.470 C 218.540 190.042,218.633 191.754,222.022 195.086 C 224.942 197.957,232.044 199.262,235.624 197.586 C 239.132 195.944,239.868 194.531,242.317 184.739 C 244.986 174.071,244.939 172.597,241.819 169.299 C 239.546 166.895,233.352 165.019,230.007 165.722 M300.699 181.903 C 295.887 182.999,294.837 184.657,292.089 195.486 C 289.453 205.875,289.536 207.903,292.729 211.062 C 295.763 214.065,303.016 215.434,306.584 213.677 C 310.084 211.954,310.699 210.759,313.200 200.828 C 315.851 190.296,315.774 188.506,312.525 185.250 C 310.168 182.887,304.018 181.147,300.699 181.903 M92.101 230.347 C 70.406 233.159,61.684 259.535,77.517 274.451 C 92.296 288.374,116.817 280.202,120.252 260.208 C 123.135 243.428,108.767 228.187,92.101 230.347 M98.492 241.576 C 109.716 244.446,113.443 258.066,105.233 266.208 C 95.785 275.577,79.761 268.344,80.457 255.024 C 80.933 245.896,89.732 239.335,98.492 241.576 " stroke="none" fill="#2cace4" fill-rule="evenodd"></path></g></svg>